<svg version="1.1" id="Layer_1" xmlns="http://www.w3.org/2000/svg" xmlns:xlink="http://www.w3.org/1999/xlink" x="0px" y="0px"
	 width="100%" viewBox="0 0 1024 1024" enable-background="new 0 0 1024 1024" xml:space="preserve">
<path fill="#000000" opacity="1.000000" stroke="none" 
	d="
M78.235924,317.334686 
	C91.182648,277.924377 109.394737,241.497116 132.157059,207.381912 
	C153.525513,175.355820 178.649078,146.506973 207.472076,120.924171 
	C236.400085,95.248207 267.972137,73.421974 302.311188,55.599686 
	C347.809998,31.985371 395.954498,16.461893 446.652740,9.181948 
	C511.495270,-0.129026 575.509949,3.959444 638.597839,22.012358 
	C699.009827,39.299530 753.733276,67.543831 802.302673,107.335373 
	C872.156311,164.564423 921.140015,236.203842 949.209595,322.136200 
	C959.387146,353.293915 965.774963,385.200989 969.082520,417.731415 
	C970.360046,430.295593 971.343262,442.921082 971.331543,455.589844 
	C971.295410,494.587402 971.885681,533.594910 971.203491,572.580444 
	C969.919556,645.955688 951.568115,714.999207 917.026184,779.797729 
	C893.524475,823.885559 863.660522,863.111877 827.192261,897.133484 
	C776.499023,944.425659 718.230286,979.125305 651.986877,1000.092773 
	C621.251282,1009.821289 589.826599,1016.016479 557.751648,1019.457520 
	C533.121704,1022.099731 508.431885,1022.321045 483.884583,1020.814209 
	C440.999939,1018.181885 399.143127,1009.539612 358.604950,994.918945 
	C301.307251,974.253845 249.976135,943.712891 204.872406,902.731079 
	C156.177399,858.486206 118.813980,806.156067 92.504555,745.867432 
	C77.847786,712.281128 67.244827,677.476990 61.224510,641.350952 
	C57.230434,617.383850 54.586678,593.252075 54.650936,568.878540 
	C54.753304,530.047852 54.268509,491.211334 54.780563,452.387177 
	C55.388233,406.313751 63.354916,361.392822 78.235924,317.334686 
M557.526611,891.825134 
	C576.964783,890.102783 596.178650,886.765137 615.058960,882.052673 
	C653.045654,872.571289 689.269409,858.426392 723.478271,839.221924 
	C767.361450,814.586426 805.906433,783.403015 838.750366,745.288940 
	C869.444397,709.669861 893.951111,670.172119 911.773376,626.608459 
	C927.435791,588.324158 937.730286,548.675903 941.760925,507.457916 
	C944.001953,484.540741 944.352417,461.619446 942.994141,438.607910 
	C941.755615,417.626099 939.595459,396.774750 935.225098,376.250031 
	C920.759155,308.313354 892.367310,246.882065 848.500610,192.805511 
	C795.226379,127.131912 728.288208,81.065910 648.237305,54.227947 
	C599.132935,37.765167 548.589294,30.710197 496.727905,32.931656 
	C470.515533,34.054451 444.621796,37.125034 419.059692,42.891026 
	C342.032562,60.265888 274.477875,95.878227 217.148056,150.061188 
	C163.583527,200.685532 125.461525,261.397034 102.723793,331.640564 
	C83.509430,390.999390 78.058586,451.655090 84.932678,513.587402 
	C90.202118,561.062561 103.423187,606.226379 123.971581,649.225952 
	C156.422821,717.133301 203.755463,772.546204 265.227814,815.914062 
	C308.589630,846.505188 356.116547,868.203857 407.464417,881.252625 
	C432.150940,887.526001 457.294556,891.423340 482.839081,893.042847 
	C507.512360,894.607178 532.051392,894.206299 557.526611,891.825134 
M603.474365,913.108826 
	C579.372375,917.531555 555.173950,921.125122 530.602905,921.397339 
	C527.773254,921.428711 526.343689,922.313354 526.355103,925.449829 
	C526.433289,946.945557 526.425110,968.441833 526.356201,989.937622 
	C526.345947,993.136475 527.905273,993.999329 530.717407,993.783875 
	C535.196289,993.440552 539.678162,993.132751 544.160950,992.844788 
	C577.700623,990.690613 610.393677,984.136414 642.466125,974.196838 
	C646.327942,973.000000 647.723328,971.167175 647.682312,967.131348 
	C647.485779,947.814026 647.588989,928.493835 647.499756,909.175049 
	C647.490112,907.086487 647.663330,904.876709 646.539612,902.773010 
	C632.409119,906.184509 618.357849,909.576904 603.474365,913.108826 
M378.205872,944.500000 
	C378.208435,952.156799 378.368378,959.818115 378.146179,967.468384 
	C378.037628,971.205505 379.111969,973.223816 382.987579,974.181763 
	C390.410431,976.016602 397.660065,978.544800 405.068542,980.446594 
	C433.971222,987.865967 463.325378,992.341797 493.147339,993.773071 
	C497.317413,993.973206 499.175140,992.925049 499.133209,988.336243 
	C498.944672,967.697937 498.965149,947.056702 499.087921,926.417542 
	C499.111786,922.409912 497.516510,921.369873 493.738861,921.304688 
	C485.430725,921.161560 477.093842,920.895935 468.834442,920.043274 
	C440.482849,917.116394 412.572357,911.771362 385.126373,904.041138 
	C383.105560,903.471985 381.111725,902.393372 378.206146,903.343140 
	C378.206146,916.629944 378.206146,930.064941 378.205872,944.500000 
M292.721161,933.731689 
	C311.197571,944.139038 329.775421,954.333069 349.592560,961.700745 
	C351.067902,959.485046 350.676971,957.772278 350.679596,956.148376 
	C350.710754,936.995422 350.543579,917.840271 350.818237,898.691162 
	C350.886505,893.933472 349.361359,891.655151 344.921967,889.910950 
	C305.160767,874.288696 268.277161,853.527771 234.472794,827.352722 
	C233.364868,826.494812 232.407654,825.098877 230.419067,825.511475 
	C230.311600,826.290649 230.106857,827.084351 230.106583,827.878174 
	C230.099945,846.864502 230.176224,865.851196 230.068878,884.836853 
	C230.050125,888.152405 231.841278,889.942200 234.064026,891.830322 
	C252.257645,907.284851 271.805084,920.839661 292.721161,933.731689 
M795.765198,833.630371 
	C795.765198,830.876587 795.765198,828.122864 795.765198,825.340027 
	C794.740479,825.409424 794.337585,825.311768 794.120728,825.469604 
	C787.929871,829.974609 781.852600,834.642029 775.566284,839.008667 
	C745.768188,859.706970 714.150757,877.057068 680.294006,890.193726 
	C676.501770,891.665100 674.939880,893.656738 674.985596,897.903198 
	C675.195251,917.390259 675.040649,936.881104 675.057373,956.370605 
	C675.058716,957.962952 674.600037,959.722229 676.019348,961.062988 
	C677.653076,961.469116 678.937439,960.520935 680.302002,960.017273 
	C692.368958,955.563293 703.622742,949.394348 715.009399,943.506592 
	C742.208801,929.442627 767.080017,911.934387 790.755615,892.609314 
	C794.622498,889.452942 795.986206,885.994812 795.892273,881.064453 
	C795.597168,865.578125 795.770752,850.082825 795.765198,833.630371 
M197.709900,856.739258 
	C199.192429,857.969238 200.050400,859.928223 202.114258,860.617615 
	C203.108765,859.004272 202.651016,857.312012 202.656021,855.716675 
	C202.701492,841.226135 202.271927,826.718750 202.853729,812.251343 
	C203.179001,804.163147 200.798065,798.654846 194.785278,792.864441 
	C153.705414,753.304138 120.913971,707.697388 97.166122,655.727783 
	C94.314621,649.487732 91.497765,643.231873 88.208069,635.975769 
	C89.149818,641.494385 89.697128,645.948059 90.687172,650.300964 
	C97.116982,678.571411 105.402954,706.245178 116.941132,732.911072 
	C136.707184,778.592590 163.539017,819.638123 197.709900,856.739258 
M823.301880,818.501343 
	C823.301880,832.317139 823.301880,846.132935 823.301880,859.948669 
	C823.844299,860.027832 824.386719,860.106934 824.929138,860.186035 
	C884.473816,796.966248 921.890503,722.532654 937.961487,636.324036 
	C937.155273,637.217102 936.851135,637.419495 936.737061,637.699402 
	C913.278625,695.236328 879.095825,745.701294 834.897156,789.149292 
	C826.254028,797.645752 821.288879,805.620850 823.301880,818.501343 
z"/>
<path fill="#000000" opacity="1.000000" stroke="none" 
	d="
M875.045288,603.956543 
	C858.560608,645.741333 836.266968,683.504211 806.874512,717.135803 
	C781.015442,746.724365 751.828613,772.252441 718.451721,792.986206 
	C680.022095,816.858704 638.682861,833.522522 594.481506,843.155640 
	C568.183228,848.887024 541.531372,851.723877 514.684570,851.877319 
	C492.879639,852.002014 471.165161,850.043884 449.581146,846.478882 
	C401.852081,838.595642 357.086945,822.444214 315.558380,797.857544 
	C247.574005,757.608215 196.809738,701.267944 162.218475,630.369141 
	C143.585754,592.179016 132.276810,551.679077 127.080879,509.617615 
	C123.135315,477.677948 123.122688,445.644104 127.455650,413.590820 
	C132.893341,373.365295 143.634644,334.765625 160.809174,298.007690 
	C179.891418,257.166718 205.318832,220.616440 237.128082,188.726501 
	C271.349518,154.418274 310.718567,127.349007 355.076202,107.657150 
	C380.889465,96.197784 407.595398,87.463966 435.283966,81.929794 
	C468.090393,75.372726 501.313995,72.982399 534.658020,74.926765 
	C596.850891,78.553375 655.201538,95.596451 708.972229,127.410889 
	C773.220032,165.424210 822.906067,217.303070 857.445557,283.615356 
	C871.280457,310.176941 882.325867,337.786591 889.468994,366.875824 
	C895.025391,389.503448 898.586304,412.455200 900.477844,435.716888 
	C901.818909,452.209076 901.834229,468.701904 901.022339,485.128387 
	C899.888916,508.062256 896.132019,530.722168 890.936279,553.122620 
	C886.941162,570.346863 881.712341,587.169617 875.045288,603.956543 
M869.715576,407.659698 
	C859.745667,342.735779 833.877502,284.757965 792.233948,234.129089 
	C746.486816,178.511185 688.938354,139.814850 620.181519,118.200844 
	C575.995178,104.310654 530.684570,99.626343 484.494843,103.129356 
	C462.672913,104.784332 441.138580,108.361336 420.094757,114.108253 
	C360.830963,130.292740 308.560089,159.229950 263.969971,201.677948 
	C231.893723,232.213226 206.202423,267.476532 187.115204,307.413177 
	C169.384033,344.512482 158.249954,383.497803 153.955215,424.524384 
	C151.308487,449.808044 150.724838,475.011383 153.481277,500.229645 
	C157.004150,532.459717 164.232086,563.805054 176.244949,594.060181 
	C199.349289,652.249756 234.410873,701.813049 282.841980,741.486023 
	C343.449310,791.133423 413.211212,818.373840 491.350800,823.522644 
	C519.817627,825.398438 548.247070,823.537964 576.391357,818.443237 
	C622.501831,810.096191 665.416504,793.544739 705.070251,768.522827 
	C770.573486,727.189941 817.643860,670.324097 847.403198,599.064636 
	C862.008362,564.092224 870.330200,527.538269 872.888672,489.674042 
	C874.724609,462.503662 874.191406,435.454163 869.715576,407.659698 
z"/>
<path fill="#000000" opacity="1.000000" stroke="none" 
	d="
M527.433228,544.492065 
	C525.386841,545.679871 523.632141,546.641663 521.933838,547.694641 
	C515.950012,551.404602 510.098480,551.213989 504.029419,547.664490 
	C484.902802,536.478149 465.697540,525.426208 446.514404,514.336609 
	C407.716553,491.907776 368.912781,469.489136 330.113678,447.062408 
	C328.527344,446.145508 326.912262,445.265015 325.398773,444.237610 
	C317.683533,439.000214 315.892914,431.286896 320.989319,423.458588 
	C329.261200,410.752716 337.785889,398.211121 346.230286,385.617889 
	C381.768890,332.619049 417.316498,279.626221 452.862396,226.632263 
	C468.360870,203.526184 483.867737,180.425735 499.356873,157.313400 
	C501.030396,154.816223 502.656891,152.265594 505.016602,150.364517 
	C510.838287,145.674316 519.503235,146.974319 524.248901,153.789688 
	C533.670715,167.320602 542.773560,181.074524 551.946350,194.777710 
	C602.641785,270.511597 653.325378,346.253387 703.993225,422.005707 
	C710.483215,431.708771 708.677490,439.518677 698.577454,445.372345 
	C641.645264,478.368286 584.694885,511.332703 527.433228,544.492065 
M526.445496,324.897614 
	C526.445496,387.115875 526.445496,449.334106 526.445496,511.552368 
	C527.005188,511.741882 527.564880,511.931396 528.124512,512.120911 
	C576.674927,483.899170 625.225281,455.677429 674.335815,427.130066 
	C625.146118,353.533417 576.453247,280.680084 527.760376,207.826736 
	C527.308105,207.976486 526.855774,208.126221 526.403503,208.275970 
	C526.403503,210.050827 526.381531,211.825989 526.407227,213.600479 
	C526.563721,224.425278 526.857666,235.249863 526.862549,246.074646 
	C526.868530,259.399689 526.239929,272.736237 526.621765,286.046661 
	C526.985046,298.708649 526.372498,311.341187 526.445496,324.897614 
M458.718018,267.177368 
	C423.192413,320.279114 387.666809,373.380859 351.702606,427.138184 
	C401.076721,455.851959 449.739929,484.152252 499.022919,512.812988 
	C499.022919,410.616058 499.022919,309.407104 499.022919,206.749634 
	C485.162933,227.539749 472.147430,247.063156 458.718018,267.177368 
z"/>
<path fill="#000000" opacity="1.000000" stroke="none" 
	d="
M323.984314,518.947083 
	C321.724854,515.630432 319.290955,512.788574 318.845734,508.969452 
	C318.214020,503.550598 320.003723,499.116180 324.486237,495.916138 
	C328.957611,492.724060 333.753754,492.145721 338.544647,494.985718 
	C346.708649,499.825226 354.788574,504.809723 362.840149,509.835297 
	C411.725250,540.348145 460.606110,570.867859 509.427094,601.482910 
	C512.025330,603.112244 513.808777,603.273987 516.499451,601.589233 
	C571.977966,566.852478 627.520264,532.217651 683.073608,497.600647 
	C687.002380,495.152496 690.894470,492.296509 695.970825,493.115875 
	C706.570129,494.826599 711.340637,505.972534 705.127686,515.337891 
	C698.224487,525.743652 690.840149,535.830322 683.658447,546.051086 
	C637.122803,612.279358 590.586792,678.507324 544.046509,744.732422 
	C537.822388,753.589172 531.559387,762.418640 525.341125,771.279480 
	C518.370850,781.211914 507.706177,781.268616 500.773010,771.369873 
	C472.966278,731.669250 445.167236,691.963196 417.362579,652.261108 
	C386.309052,607.919922 355.252502,563.580750 323.984314,518.947083 
M458.340973,602.199219 
	C434.033783,586.984436 409.726562,571.769653 385.419373,556.554932 
	C385.116150,556.922241 384.812927,557.289551 384.509674,557.656860 
	C422.387695,611.599854 460.265686,665.542847 498.503326,719.998047 
	C499.529663,716.518738 499.679932,713.869324 499.591003,711.209595 
	C498.717316,685.078003 499.180939,658.936951 499.105042,632.800537 
	C499.094025,629.012268 497.800232,626.709229 494.572845,624.748047 
	C482.624146,617.486755 470.827820,609.974854 458.340973,602.199219 
M630.941162,562.501160 
	C624.319885,566.677856 617.713196,570.877930 611.074768,575.027100 
	C584.098083,591.888123 557.114868,608.738647 530.122314,625.574280 
	C528.070251,626.854187 526.659546,628.073059 526.700806,631.013245 
	C527.088806,658.660645 527.273499,686.310974 526.622009,713.958801 
	C526.583618,715.586609 526.417297,717.259949 528.112793,719.008118 
	C566.225220,664.763794 604.237915,610.661377 642.250610,556.558960 
	C642.048096,556.352234 641.845581,556.145569 641.643066,555.938843 
	C638.288635,558.010864 634.934143,560.082825 630.941162,562.501160 
z"/>
</svg>